<svg xmlns="http://www.w3.org/2000/svg" width="72" height="158.732" viewBox="0 0 72 158.732">
    <g data-name="그룹 5769">
        <path data-name="사각형 2426" transform="translate(36.435 45)" style="fill:#e4e4e4" d="M0 0h32v106H0z"/>
        <path data-name="사각형 2425" transform="translate(8.435)" style="fill:#cce2f8" d="M0 0h33v137H0z"/>
        <path data-name="빼기 3" d="M1353 7532.732h-72V7374h72v158.731zm-15.358-15.981c.2 0 .334.154.656.65a2.029 2.029 0 0 0 3.809 0 1.816 1.816 0 0 1 .658-.648v-1.486a2.331 2.331 0 0 0-1.9 1.329c-.315.488-.454.65-.66.65s-.338-.154-.656-.65a2.027 2.027 0 0 0-3.806 0c-.32.5-.453.65-.656.65s-.334-.154-.652-.65a2.025 2.025 0 0 0-3.8 0c-.319.5-.451.652-.655.652s-.334-.154-.654-.65a2.29 2.29 0 0 0-1.9-1.329v1.486c.2 0 .335.154.654.648a2.024 2.024 0 0 0 3.8 0c.319-.495.451-.648.656-.648s.333.154.652.648a2.026 2.026 0 0 0 3.806 0c.312-.503.444-.652.647-.652zm0-4.458c.2 0 .334.154.656.65a2.028 2.028 0 0 0 3.809 0 1.825 1.825 0 0 1 .658-.65v-1.486a2.333 2.333 0 0 0-1.9 1.331c-.318.489-.457.652-.66.652s-.335-.155-.656-.652a2.026 2.026 0 0 0-3.806 0c-.323.5-.456.652-.656.652s-.331-.155-.652-.652l-.008-.012a2.021 2.021 0 0 0-3.792 0l-.005.009c-.321.5-.453.652-.654.652s-.326-.147-.654-.652l-.005-.008a2.287 2.287 0 0 0-1.9-1.323v1.486c.2 0 .334.154.654.65a2.024 2.024 0 0 0 3.8 0c.32-.5.452-.65.656-.65s.332.154.652.65a2.025 2.025 0 0 0 3.805 0c.323-.493.455-.647.657-.647zm-41.791-38.6a19.289 19.289 0 0 0 10.287 3.4 19.485 19.485 0 0 0 10.921-3.854l.741-.583-.741-.584a17.372 17.372 0 0 0-21.468-.276l-3.781-2.465-.811 1.242 3.459 2.257-3.459 2.255.811 1.244 4.04-2.633zm41.791-40.124c.2 0 .334.154.656.65a2.029 2.029 0 0 0 3.809 0 1.817 1.817 0 0 1 .658-.651v-1.486a2.333 2.333 0 0 0-1.9 1.331c-.316.488-.456.65-.66.65s-.337-.154-.656-.65a2.026 2.026 0 0 0-3.806 0c-.32.5-.453.65-.656.65s-.334-.154-.652-.65v-.007a2.023 2.023 0 0 0-3.8 0c-.32.5-.453.654-.656.654s-.334-.154-.654-.65a2.294 2.294 0 0 0-1.9-1.331v1.486c.2 0 .335.154.654.65a2.025 2.025 0 0 0 3.8 0c.319-.5.451-.651.656-.651s.333.154.652.65a2.026 2.026 0 0 0 3.805 0c.314-.491.446-.646.649-.646zm0-4.456c.2 0 .335.154.656.65a2.027 2.027 0 0 0 3.806 0 1.771 1.771 0 0 1 .658-.65v-1.486a2.331 2.331 0 0 0-1.9 1.329c-.316.489-.456.652-.66.652s-.336-.155-.656-.652a2.026 2.026 0 0 0-3.805 0c-.322.5-.454.653-.656.653s-.333-.155-.652-.652l-.007-.01a2.023 2.023 0 0 0-3.795 0v.007c-.32.5-.452.652-.654.652s-.333-.155-.654-.652v-.006a2.288 2.288 0 0 0-1.9-1.323v1.486c.2 0 .336.154.654.65a2.024 2.024 0 0 0 3.8 0c.319-.5.451-.65.656-.65s.333.154.652.65a2.025 2.025 0 0 0 3.805 0c.316-.494.448-.648.651-.648zm-41.791-36.129a19.24 19.24 0 0 0 10.287 3.4 19.466 19.466 0 0 0 10.921-3.853l.741-.584-.741-.583a17.37 17.37 0 0 0-21.468-.278l-3.781-2.465-.811 1.244 3.459 2.255-3.459 2.257.811 1.244 4.04-2.635zm15.057 80.659a.991.991 0 1 1 .989-.991.992.992 0 0 1-.989.991zm0-80.708a.99.99 0 1 1 .989-.99.992.992 0 0 1-.989.99z" transform="translate(-1281 -7374)" style="fill:#fff"/>
    </g>
</svg>
